<svg width="1728" height="626" viewBox="0 0 1728 626" fill="none" xmlns="http://www.w3.org/2000/svg">
<g clip-path="url(#clip0_210_61)">
<path d="M0 438.2L57.6 459.132C115.2 479.281 230.4 522.319 345.6 542.468C460.8 563.4 576 563.4 691.2 469.5C806.4 375.6 921.6 187.8 1036.8 166.868C1152 146.719 1267.2 291.481 1382.4 323.368C1497.6 354.081 1612.8 271.919 1670.4 229.468L1728 187.8V626H1670.4C1612.8 626 1497.6 626 1382.4 626C1267.2 626 1152 626 1036.8 626C921.6 626 806.4 626 691.2 626C576 626 460.8 626 345.6 626C230.4 626 115.2 626 57.6 626H0V438.2Z" fill="#E86B24"/>
<g clip-path="url(#clip1_210_61)">
<path d="M1728 299.613L1670.4 306.37C1612.8 313.637 1497.6 326.387 1382.4 374.453C1267.2 422.008 1152 503.605 1036.8 489.963C921.6 476.831 806.4 367.185 691.2 306.37C576 244.79 460.8 232.041 345.6 272.457C230.4 313.637 115.2 407.984 57.6 456.049L-0.00012207 503.605V626H57.6C115.2 626 230.4 626 345.6 626C460.8 626 576 626 691.2 626C806.4 626 921.6 626 1036.8 626C1152 626 1267.2 626 1382.4 626C1497.6 626 1612.8 626 1670.4 626H1728V299.613Z" fill="#157124"/>
</g>
</g>
<defs>
<clipPath id="clip0_210_61">
<rect width="1728" height="626" fill="white"/>
</clipPath>
<clipPath id="clip1_210_61">
<rect width="1728" height="407.984" fill="white" transform="matrix(-1 0 0 1 1728 218.016)"/>
</clipPath>
</defs>
</svg>
