<svg width="1728" height="424" viewBox="0 0 1728 424" fill="none" xmlns="http://www.w3.org/2000/svg">
<path d="M0 212L11.04 204.977C22.2 197.425 44.4 184.175 66 190.8C88.56 197.425 110.4 226.575 133.2 197.822C155.04 169.6 177.6 84.7999 199.2 49.4224C221.52 14.5749 243.6 27.8249 266.4 63.5999C288 99.375 309.6 155.025 332.4 169.6C354.48 184.175 376.8 155.025 398.4 120.177C420.96 84.7999 442.8 42.3999 465.6 77.7775C487.44 112.625 510 226.575 531.6 233.2C553.8 239.825 576 141.775 597.6 91.8225C620.28 42.4 642 42.3999 664.8 42.3999C686.76 42.3999 709.2 42.4 730.8 91.8225C753.24 141.775 775.2 239.825 798 268.577C819.72 296.8 842.4 254.4 864 261.422C886.2 268.975 908.4 324.625 930 332.177C952.56 339.2 974.4 296.8 997.2 233.2C1019.04 169.6 1041.6 84.7999 1063.2 98.9774C1085.52 112.625 1107.6 226.575 1130.4 268.577C1152 311.375 1173.6 282.225 1196.4 275.6C1218.48 268.975 1240.8 282.225 1262.4 275.6C1284.96 268.975 1306.8 239.825 1329.6 197.822C1351.44 155.025 1374 99.375 1395.6 70.6224C1417.8 42.3999 1440 42.3999 1461.6 49.4224C1484.28 56.9749 1506 70.225 1528.8 113.022C1550.76 155.025 1573.2 226.575 1594.8 219.022C1617.24 212 1639.2 127.2 1662 120.177C1683.72 112.625 1706.4 184.175 1717.2 219.022L1728 254.4V424H1716.96C1705.8 424 1683.6 424 1662 424C1639.44 424 1617.6 424 1594.8 424C1572.96 424 1550.4 424 1528.8 424C1506.48 424 1484.4 424 1461.6 424C1440 424 1418.4 424 1395.6 424C1373.52 424 1351.2 424 1329.6 424C1307.04 424 1285.2 424 1262.4 424C1240.56 424 1218 424 1196.4 424C1174.2 424 1152 424 1130.4 424C1107.72 424 1086 424 1063.2 424C1041.24 424 1018.8 424 997.2 424C974.76 424 952.8 424 930 424C908.28 424 885.6 424 864 424C841.8 424 819.6 424 798 424C775.44 424 753.6 424 730.8 424C708.96 424 686.4 424 664.8 424C642.48 424 620.4 424 597.6 424C576 424 554.4 424 531.6 424C509.52 424 487.2 424 465.6 424C443.04 424 421.2 424 398.4 424C376.56 424 354 424 332.4 424C310.2 424 288 424 266.4 424C243.72 424 222 424 199.2 424C177.24 424 154.8 424 133.2 424C110.76 424 88.8 424 66 424C44.28 424 21.6 424 10.8 424H0V212Z" fill="#30221D"/>
</svg>
